<svg xmlns="http://www.w3.org/2000/svg" width="20" height="41" viewBox="0 0 20 41"><path fill="#FFF" d="M18.1 20H1.9C.85 20 0 19.15 0 18.1V1.9C0 .85.85 0 1.9 0h16.2c1.05 0 1.9.85 1.9 1.9v16.2c0 1.05-.85 1.9-1.9 1.9zm0 21H1.9C.85 41 0 40.15 0 39.1V22.9C0 21.85.85 21 1.9 21h16.2c1.05 0 1.9.85 1.9 1.9v16.2c0 1.05-.85 1.9-1.9 1.9z"/><path fill="#ea6a6a" d="M17.8 26.74L8 36.57c-.08.1-.22.1-.3 0L2.07 31c-.08-.1-.08-.24 0-.32l1.37-1.36c.08-.1.22-.1.3 0l4.08 4.07 8.3-8.35c.1-.08.24-.08.32 0l1.36 1.36c.1.1.1.24 0 .3zm0 0"/></svg>