<svg xmlns="http://www.w3.org/2000/svg" width="25.69" height="33" viewBox="0 0 25.69 33"><title>in-female</title><path d="M25.1,31.186a13.549,13.549,0,0,0-7.421-6.751V22.479c1.6-.088,4.611-.494,6.378-2.3a.922.922,0,0,0,.23-.873.912.912,0,0,0-.637-.643c-.027-.007-2.356-.806-1.889-5.573a20.706,20.706,0,0,0-.095-5.43,8.261,8.261,0,0,0-1.8-4.2,4.816,4.816,0,0,0-3.724-1.6h-.176A5.683,5.683,0,0,0,12.2.5a7.76,7.76,0,0,0-2.8.555l-.041.014A6.939,6.939,0,0,0,6,3.473c-1.388,1.842-2.052,4.57-1.971,8.1s-.5,5.275-1,6.108c-.413.684-.806.819-.907.846a.832.832,0,0,0-.8.447.924.924,0,0,0,.088.989,4.816,4.816,0,0,0,1.7,1.374,11.205,11.205,0,0,0,4.868,1.185v1.862A13.612,13.612,0,0,0,.59,31.193.909.909,0,0,0,1.409,32.5H24.282a.912.912,0,0,0,.772-.426.938.938,0,0,0,.047-.887Z" fill="none" stroke="#2c3a48" stroke-linecap="round" stroke-linejoin="round"/></svg>