<svg xmlns="http://www.w3.org/2000/svg" width="31.508" height="30.166" viewBox="0 0 31.508 30.166"><title>in-following</title><circle cx="26.166" cy="24.823" r="4.843" fill="none" stroke="#2c3a48" stroke-linecap="round" stroke-linejoin="round"/><path d="M19.339,25.114a5.516,5.516,0,0,1,.924-3.06l-2.6-1.417a1.4,1.4,0,0,1-.73-1.23V17.651a11.1,11.1,0,0,0,1.857-3.837,2.1,2.1,0,0,0,.795-1.649V10.044a2.11,2.11,0,0,0-.531-1.39V5.831a4.742,4.742,0,0,0-1.108-3.459C16.858,1.129,15.093.5,12.7.5s-4.163.629-5.253,1.872A4.74,4.74,0,0,0,6.334,5.831V8.654a2.11,2.11,0,0,0-.531,1.39v2.121A2.1,2.1,0,0,0,6.6,13.814a11.1,11.1,0,0,0,1.857,3.837v1.755a1.4,1.4,0,0,1-.73,1.23l-4.73,2.581A4.78,4.78,0,0,0,.5,27.418v2.248H21.721A5.545,5.545,0,0,1,19.339,25.114Z" fill="none" stroke="#2c3a48" stroke-linecap="round" stroke-linejoin="round"/><line x1="26.166" y1="21.785" x2="26.166" y2="27.861" fill="none" stroke="#2c3a48" stroke-linecap="round" stroke-linejoin="round"/><line x1="23.128" y1="24.823" x2="29.203" y2="24.823" fill="none" stroke="#2c3a48" stroke-linecap="round" stroke-linejoin="round"/></svg>