<svg xmlns="http://www.w3.org/2000/svg" width="33.188" height="33" viewBox="0 0 33.188 33"><title>in-favorite</title><path d="M18.653,24.613q1.737-1.717,3.457-3.451c.894-.9,1.778-1.8,2.684-2.688a6.373,6.373,0,0,0,1.186-1.386,4.818,4.818,0,0,0-1.805-6.644,4.094,4.094,0,0,0-3.163-.5,4.075,4.075,0,0,0-1.6.948,18.613,18.613,0,0,0-2.351,2.722c-.139.18-.288.354-.413.543-.108.164-.169.114-.263-.011-.516-.68-1.029-1.362-1.559-2.031a7.431,7.431,0,0,0-1.936-1.795,3.394,3.394,0,0,0-2.5-.426,4.817,4.817,0,0,0-3.851,3.611,4.69,4.69,0,0,0,.044,2.479,4.81,4.81,0,0,0,1.335,2.18c1.1,1.048,2.16,2.138,3.237,3.211l9.037,9.008c.441.439.886.875,1.321,1.32a.3.3,0,0,0,.348.093,16.231,16.231,0,0,0,9.654-9.17,14.919,14.919,0,0,0,.837-2.764,16.4,16.4,0,0,0,.305-4.4,17.009,17.009,0,0,0-.461-2.834,14.8,14.8,0,0,0-1.126-3.1,16.236,16.236,0,0,0-2.417-3.59,16.575,16.575,0,0,0-3.838-3.178,15.508,15.508,0,0,0-3.9-1.675A16.092,16.092,0,0,0,3.572,7.179a15.861,15.861,0,0,0-1.746,3.037A15.681,15.681,0,0,0,.762,13.835a16.582,16.582,0,0,0-.251,2.742,3.675,3.675,0,0,0,.034.91L.577,18A16.179,16.179,0,0,0,9.82,31.169a15.274,15.274,0,0,0,3.262,1.109c.4.086.8.163,1.208.222" fill="none" stroke="#2c3a48" stroke-linecap="round" stroke-linejoin="round"/></svg>