<svg xmlns="http://www.w3.org/2000/svg" width="28.837" height="33" viewBox="0 0 28.837 33"><title>in-male</title><path d="M8.93,21.255v2.1A15.347,15.347,0,0,0,.6,31.027,1.025,1.025,0,0,0,1.525,32.5H27.313a1.028,1.028,0,0,0,.87-.481,1.057,1.057,0,0,0,.053-1h0a15.276,15.276,0,0,0-8.367-7.611V21.2l0-1.422c.261-.581,1.763-1.214,1.927-1.9.953-.343,1.475-1.743,1.825-2.98.469-1.646.417-2.8-.134-3.442.581-3.166.321-5.5-.767-6.936a3.413,3.413,0,0,0-1.691-1.214,6.243,6.243,0,0,0-2.064-1.8A7.344,7.344,0,0,0,15.155.5c-.253,0-.506.015-.73.03A6.99,6.99,0,0,0,12.57.88c-.008,0-.015.008-.023.008a8.252,8.252,0,0,0-1.959,1A10.345,10.345,0,0,0,8.629,3.51a8.148,8.148,0,0,0-2.19,3.852,7.243,7.243,0,0,0-.075,3.457,1.727,1.727,0,0,0-.358.343c-.514.678-.536,1.743-.082,3.36a5.253,5.253,0,0,0,1.438,2.771A11.177,11.177,0,0,0,8.93,20.2Z" fill="none" stroke="#2c3a48" stroke-linecap="round" stroke-linejoin="round"/></svg>