<svg xmlns="http://www.w3.org/2000/svg" width="26.182" height="32.5" viewBox="0 0 26.182 32.5"><title>in-notification</title><path d="M25.593,25.989l-2.162-3.6A10.7,10.7,0,0,1,21.9,16.878V13.721a8.825,8.825,0,0,0-6.3-8.443V3.018a2.518,2.518,0,0,0-5.037,0v2.26a8.825,8.825,0,0,0-6.3,8.443v3.157a10.711,10.711,0,0,1-1.525,5.506L.59,25.988a.631.631,0,0,0,.539.954H25.053a.629.629,0,0,0,.54-.953Z" fill="none" stroke="#2c3a48" stroke-linecap="round" stroke-linejoin="round"/><path d="M13.091,32.5a4.661,4.661,0,0,0,4.2-2.667h-8.4a4.661,4.661,0,0,0,4.2,2.667Z" fill="#2c3a48"/></svg>