<svg xmlns="http://www.w3.org/2000/svg" width="35.209" height="33" viewBox="0 0 35.209 33"><title>in-profile</title><path d="M27.261,32.5V30.034a5.245,5.245,0,0,0-2.736-4.608l-5.19-2.832a1.537,1.537,0,0,1-.8-1.35V19.318a12.181,12.181,0,0,0,2.037-4.21,2.307,2.307,0,0,0,.872-1.809V10.971a2.315,2.315,0,0,0-.583-1.525V6.35a5.2,5.2,0,0,0-1.216-3.8C18.448,1.19,16.511.5,13.88.5s-4.568.69-5.764,2.054A5.2,5.2,0,0,0,6.9,6.35v3.1a2.315,2.315,0,0,0-.583,1.525V13.3a2.307,2.307,0,0,0,.872,1.809,12.181,12.181,0,0,0,2.037,4.21v1.926a1.537,1.537,0,0,1-.8,1.35l-5.19,2.832A5.245,5.245,0,0,0,.5,30.034V32.5H27.235" fill="none" stroke="#2c3a48" stroke-linecap="round" stroke-linejoin="round"/><path d="M20.43,3.779a8.617,8.617,0,0,1,2.18-.291c6.872.058,7.1,7.017,7.106,7.088.079,4.091,2.611,8.128,3.7,9.671a1.728,1.728,0,0,1-.722,2.577,6.738,6.738,0,0,1-2.886.392l-3.8,0a1.182,1.182,0,0,0,.41.449l5.687,2.46a4.7,4.7,0,0,1,2.608,4.222V32.5H27.261" fill="none" stroke="#2c3a48" stroke-linecap="round" stroke-linejoin="round"/><line x1="27.261" y1="32.5" x2="27.235" y2="32.5" fill="none" stroke="#2c3a48" stroke-linecap="round" stroke-linejoin="round"/></svg>