<svg xmlns="http://www.w3.org/2000/svg" width="33" height="33" viewBox="0 0 33 33"><title>in-smile</title><path d="M27.819,5.182a16.007,16.007,0,1,0,0,22.636,16.025,16.025,0,0,0,0-22.636Z" fill="none" stroke="#2c3a48" stroke-linecap="round" stroke-linejoin="round"/><path d="M10.53,12.168A1.87,1.87,0,1,1,12.4,14.039a1.871,1.871,0,0,1-1.871-1.871Z" fill="#2c3a48"/><path d="M19.013,12.168a1.871,1.871,0,1,1,1.871,1.871,1.872,1.872,0,0,1-1.871-1.871Z" fill="#2c3a48"/><path d="M23.435,19.83h0a7.469,7.469,0,0,1-6.917,4.414,7.417,7.417,0,0,1-6.96-4.436" fill="none" stroke="#2c3a48" stroke-linecap="round" stroke-linejoin="round"/><path d="M23.435,19.83" fill="#a3a3a3"/></svg>