<svg xmlns="http://www.w3.org/2000/svg" width="33" height="33" viewBox="0 0 33 33"><title>in-settings</title><path d="M32.4,20.075a1.087,1.087,0,0,0-.606-.57l-2.937-1.112a12.492,12.492,0,0,0-.138-4.537l2.863-1.29a1.087,1.087,0,0,0,.545-1.438L30.879,8.352a1.087,1.087,0,0,0-1.437-.545L26.579,9.1a12.492,12.492,0,0,0-3.306-3.11l1.114-2.936a1.088,1.088,0,0,0-.631-1.4L20.907.57a1.088,1.088,0,0,0-1.4.631L18.393,4.138a12.442,12.442,0,0,0-4.537.139l-1.29-2.863A1.087,1.087,0,0,0,11.13.869L8.352,2.12a1.088,1.088,0,0,0-.544,1.438L9.1,6.421a12.488,12.488,0,0,0-3.11,3.305L3.052,8.613a1.088,1.088,0,0,0-1.4.632L.571,12.093a1.088,1.088,0,0,0,.63,1.4l2.937,1.112a12.491,12.491,0,0,0,.138,4.536l-2.863,1.29a1.088,1.088,0,0,0-.544,1.438l1.25,2.777a1.087,1.087,0,0,0,1.438.545L6.42,23.9a12.491,12.491,0,0,0,3.305,3.11L8.613,29.949a1.088,1.088,0,0,0,.632,1.4l2.849,1.078a1.064,1.064,0,0,0,.384.071,1.089,1.089,0,0,0,1.017-.7l1.112-2.936a12.463,12.463,0,0,0,4.536-.138l1.29,2.863a1.087,1.087,0,0,0,1.437.545l2.778-1.251a1.086,1.086,0,0,0,.545-1.437L23.9,26.58a12.48,12.48,0,0,0,3.11-3.306l2.937,1.114a1.087,1.087,0,0,0,1.4-.631l1.08-2.849A1.09,1.09,0,0,0,32.4,20.075Zm-9.013-.965a7.359,7.359,0,0,1-9.5,4.281,7.369,7.369,0,0,1-4.281-9.5,7.36,7.36,0,0,1,9.5-4.28,7.368,7.368,0,0,1,4.281,9.5Z" fill="none" stroke="#2c3a48" stroke-linecap="round" stroke-linejoin="round"/></svg>