<svg xmlns="http://www.w3.org/2000/svg" width="36.072" height="33" viewBox="0 0 36.072 33"><title>in-want-to-visit</title><path d="M34.349,12.476A3.153,3.153,0,0,0,35.5,9.508,3.156,3.156,0,0,0,32.76,7.89a9.357,9.357,0,0,0-4.329.474L23.847,9.954,12.508.666a.624.624,0,0,0-.654-.126L8.187,1.81a.665.665,0,0,0-.426.437.724.724,0,0,0,.1.623l7.189,10.135L7.634,15.579,4.387,12.74a.447.447,0,0,0-.145-.093.67.67,0,0,0-.528-.042l-2.758.973a.724.724,0,0,0-.407.4.64.64,0,0,0,.034.565l3.093,6,1.289,6.63a.763.763,0,0,0,.341.475l.039.019a.667.667,0,0,0,.527.041l2.75-.953a.655.655,0,0,0,.445-.524l.792-4.239,7.42-2.573.629,12.411a.592.592,0,0,0,.256.506.475.475,0,0,0,.126.085.605.605,0,0,0,.421.062l3.369-.654a.653.653,0,0,0,.54-.525l3.425-14.924,4.612-1.6a9.368,9.368,0,0,0,3.693-2.308Zm0,0" fill="none" stroke="#2c3a48" stroke-linecap="round" stroke-linejoin="round"/></svg>