<svg xmlns="http://www.w3.org/2000/svg" viewBox="0 0 166.206 163.493"><path d="M155.508 29.813H85.307l-7.306 28.271-2.621 18.499 14.059 39.216 2.251 47.6h63.818a10.7 10.7 0 0 0 10.7-10.7V40.513a10.7 10.7 0 0 0-10.7-10.7z" fill="#ededed"/><path d="M119.683 133.68l-27.994 29.813-9.927-29.813 4.07-10.852 33.851 10.852z" fill="#4555a1"/><path d="M152.424 77.909v-6.783h-25.743v-9.465h-6.783v9.5H96.714v6.783h37.613a148.913 148.913 0 0 1-10.7 18.837c-4.594-5.734-7.492-9.712-7.523-9.773l-2-2.744-5.49 3.973 2 2.744c.154.216 3.545 4.871 8.879 11.469-3.633 4.47-10.324 11.711-13.838 15.23l4.81 4.871c3.083-3.083 9.249-9.8 13.442-14.706 5.334 6.351 10.544 12.085 15.415 17.049l2.4 2.4 4.871-4.748-2.4-2.4c-5.149-5.149-10.544-11.13-16.125-17.785a152.488 152.488 0 0 0 13.689-24.3z" fill="#898583"/><path d="M113.548 114.719l6.166 18.991H10.7A10.7 10.7 0 0 1 0 123.013V10.7A10.7 10.7 0 0 1 10.7 0h64.742l9.866 29.813 14.8 44.7 13.286 40.087z" fill="#6788c5"/><path d="M48.465 91.936a25.188 25.188 0 1 1 17.789-42.977l-4.779 4.779a18.5 18.5 0 1 0 5.087 16.4h-18.1v-6.779h25.191v3.391a25.219 25.219 0 0 1-25.188 25.186z" fill="#fff"/></svg>