<svg xmlns="http://www.w3.org/2000/svg" width="31.943" height="29.319" viewBox="0 0 31.943 29.319"><title>lives-in</title><path d="M29.9,11.224a2.692,2.692,0,0,0,.985-2.534A2.7,2.7,0,0,0,28.541,7.31a7.988,7.988,0,0,0-3.7.4L20.932,9.071l-9.681-7.93a.533.533,0,0,0-.559-.108L7.562,2.119a.568.568,0,0,0-.364.373.618.618,0,0,0,.088.532l6.138,8.652-6.334,2.2L4.318,11.45a.381.381,0,0,0-.123-.08.572.572,0,0,0-.451-.036l-2.355.831a.618.618,0,0,0-.348.34.546.546,0,0,0,.029.482l2.641,5.125,1.1,5.66a.652.652,0,0,0,.291.405l.034.016a.57.57,0,0,0,.45.035l2.348-.813a.56.56,0,0,0,.38-.447l.676-3.619,6.335-2.2.537,10.6a.505.505,0,0,0,.219.432.406.406,0,0,0,.107.073.517.517,0,0,0,.36.053l2.876-.558a.558.558,0,0,0,.461-.448l2.924-12.741,3.937-1.365a8,8,0,0,0,3.153-1.97Zm0,0" fill="none" stroke="#fff" stroke-linecap="round" stroke-linejoin="round" stroke-width="2"/></svg>