<svg xmlns="http://www.w3.org/2000/svg" viewBox="0 0 133.033 34.342"><defs><style>.a{fill:#ff5a60;}</style></defs><g transform="translate(-28.998 -18)"><path class="a" d="M63.453,12.314a18.8,18.8,0,0,1-.394,2.6C60.773,24.334,57.936,30.6,55.413,31.7h0c-2.522,1.1-9.064-1.064-17.538-5.754-4.138-2.286-7.409-6.9-5.4-12.06A9.265,9.265,0,0,1,44.457,8.649a1.061,1.061,0,0,0,1.379-.591,9.308,9.308,0,0,1,12.02-5.281A8.188,8.188,0,0,1,62.35,6.836l1.931-.867A10.291,10.291,0,0,0,58.606.806,11.4,11.4,0,0,0,44.3,6.324,11.369,11.369,0,0,0,30.545,13.1a10.42,10.42,0,0,0,.315,8.473,14.356,14.356,0,0,0,5.99,6.187,75.588,75.588,0,0,0,9.892,4.69,21.019,21.019,0,0,0,6.976,1.616,6.13,6.13,0,0,0,2.522-.473h0c2.01-.867,3.823-3.429,5.6-7.764a74.72,74.72,0,0,0,3.232-10.444,14.637,14.637,0,0,0,.434-3.9Z" transform="translate(-0.794 17.97)"/><path class="a" d="M56.774,30.952c-.985.434-2.049.867-3.153,1.419C48.892,34.617,42.31,38.4,37.818,43.6c-2.049,2.365-2.916,4.256-2.4,5.2.473.867,1.773,1.537,3.586,1.773,1.025.118,4.335.394,4.335.394s-2.759.749-3.783.906c-3.035.434-5.163-.512-5.99-2.01C32.537,48.017,33.4,45.534,36.2,42.3c4.729-5.478,11.587-9.419,16.513-11.744,1.143-.552,2.246-1.025,3.232-1.458Z" transform="translate(-2.825 0.357)"/><path class="a" d="M101.117,17.752a1.087,1.087,0,0,0,.394-1.025,1.074,1.074,0,0,0-.946-.552,3.2,3.2,0,0,0-1.5.158l-1.616.552-3.98-3.271a.242.242,0,0,0-.236-.039l-1.3.434a.308.308,0,0,0-.158.158.261.261,0,0,0,.039.236l2.522,3.547-2.562.906-1.143-.985a.039.039,0,0,1-.039-.039.179.179,0,0,0-.2,0l-.985.355a.308.308,0,0,0-.158.158.176.176,0,0,0,0,.2l1.064,2.089.434,2.325c0,.079.039.118.118.158h0a.179.179,0,0,0,.2,0l.946-.315c.079-.039.158-.079.158-.2l.276-1.5,2.6-.906.236,4.335a.2.2,0,0,0,.079.158l.039.039a.237.237,0,0,0,.158.039l1.182-.236a.253.253,0,0,0,.2-.2l1.182-5.242,1.616-.552a2.664,2.664,0,0,0,1.379-.788Zm0,0" transform="translate(-36.803 9.773)"/><path class="a" d="M11.372,116.3v-1.745a5.413,5.413,0,0,1-4.513,2.106,7.134,7.134,0,0,1,.06-14.259,5.07,5.07,0,0,1,4.452,2.166v-1.805H14.38v13.658H11.372ZM7.28,105.348a3.94,3.94,0,0,0-3.971,4.272,3.821,3.821,0,0,0,4.031,4.031,3.8,3.8,0,0,0,3.971-4.031A3.985,3.985,0,0,0,7.28,105.348Z" transform="translate(71.6 -79.406)"/><path class="a" d="M28,112.992V99.334h3.249v13.658Zm0-15.643V94.1h3.249v3.249Z" transform="translate(60.447 -76.1)"/><path class="a" d="M55.457,120.97h-3.55l2.587-5.836L49.5,102.8h3.73l3.008,8.844,3.309-8.844h3.791Z" transform="translate(51.882 -79.566)"/><path class="a" d="M82.962,113.731a5.815,5.815,0,0,1-4.753-2.046v1.745H75.2V95.2h3.249v5.836a5.379,5.379,0,0,1,4.212-1.745,6.906,6.906,0,0,1,6.859,7.22C89.58,110.6,86.812,113.731,82.962,113.731ZM82.24,102.3a4.217,4.217,0,1,0,4.031,4.212A4,4,0,0,0,82.24,102.3Z" transform="translate(41.646 -76.538)"/><path class="a" d="M112.672,116.3v-1.745a5.413,5.413,0,0,1-4.513,2.106,7.134,7.134,0,0,1,.06-14.259,5.07,5.07,0,0,1,4.452,2.166v-1.805h3.008v13.658h-3.008Zm-4.091-10.95a3.94,3.94,0,0,0-3.971,4.272,4,4,0,1,0,8,0A4.054,4.054,0,0,0,108.58,105.348Z" transform="translate(31.249 -79.406)"/><path class="a" d="M133.257,120.97h-3.55l2.587-5.836L127.3,102.8h3.73l3.008,8.844,3.309-8.844h3.791Z" transform="translate(20.893 -79.566)"/><path class="a" d="M40.949,105.949v10.409H37.7V102.7h3.008v1.324" transform="translate(56.583 -79.526)"/><path class="a" d="M43.937,106.189,44.3,103c-1.564.241-3.309.6-5.114.963-.542.12-.782.241-1.384.361l.06,3.249c.963-.241,1.023-.421,1.925-.6C41.23,106.67,42.613,106.429,43.937,106.189Z" transform="translate(56.543 -79.645)"/><g transform="translate(71.897 46.023)"><path class="a" d="M3.562,1.3c.087-.087.173-.173.087-.346,0-.087-.173-.173-.26-.173a.649.649,0,0,0-.433.087l-.519.173L1.312,0H1.225L.792.173.706.26V.346l.779,1.039-.692.173L.446,1.3H.36L.1,1.385h0v.087l.346.606.173.692v.087H.706L.879,2.77l.087-.087.087-.433.692-.26.087,1.3v.087h.087l.346-.087A.085.085,0,0,0,2.351,3.2L2.7,1.645l.519-.173A.45.45,0,0,0,3.562,1.3Zm0,0" transform="translate(24.137 1.731)"/><path class="a" d="M3.562,1.3c.087-.087.173-.173.087-.346,0-.087-.173-.173-.26-.173a.649.649,0,0,0-.433.087l-.519.173L1.312,0H1.225L.792.173.706.26V.346l.779,1.039-.692.173L.446,1.3H.36L.1,1.385h0v.087l.346.606.173.692v.087H.706L.879,2.77l.087-.087.087-.433.692-.26.087,1.3v.087h.087l.346-.087A.085.085,0,0,0,2.351,3.2L2.7,1.645l.519-.173A.45.45,0,0,0,3.562,1.3Zm0,0" transform="translate(55.299 1.731)"/><g transform="translate(0 0)"><path class="a" d="M2.51,6.547A2.5,2.5,0,0,1,0,4.124,2.367,2.367,0,0,1,2.424,1.7,2.415,2.415,0,0,1,4.761,3.345H3.549a1.248,1.248,0,0,0-1.125-.692,1.3,1.3,0,0,0-1.3,1.385A1.442,1.442,0,0,0,2.51,5.509,1.13,1.13,0,0,0,3.549,4.9h1.3A2.5,2.5,0,0,1,2.51,6.547Z" transform="translate(0 -0.229)"/><path class="a" d="M10.43,6.146V3.809c0-.952-.26-1.385-.866-1.385s-.952.346-.952,1.385V6.146H7.4V0H8.525V1.9a1.433,1.433,0,0,1,1.125-.433c1.125,0,1.818.606,1.818,2.164v2.6H10.43Z" transform="translate(-0.994)"/><path class="a" d="M17.8,6.374V5.855a1.779,1.779,0,0,1-1.558.692A2.3,2.3,0,0,1,13.9,4.124,2.3,2.3,0,0,1,16.237,1.7a2.027,2.027,0,0,1,1.558.692V1.787h1.039V6.461H17.8ZM16.41,2.652a1.389,1.389,0,0,0-1.385,1.471,1.385,1.385,0,0,0,2.77,0A1.389,1.389,0,0,0,16.41,2.652Z" transform="translate(-1.868 -0.229)"/><path class="a" d="M22.745,2.6V6.232H21.619V2.6H21.1V1.558h.519V0h1.125V1.558h.692V2.6Z" transform="translate(-2.836)"/><path class="a" d="M40.1,6.146V5.626a1.779,1.779,0,0,1-1.558.692A2.348,2.348,0,0,1,36.2,3.9a2.424,2.424,0,0,1,2.337-2.51,2.088,2.088,0,0,1,1.472.606V0h1.125V6.146ZM38.71,2.424a1.367,1.367,0,0,0-1.385,1.385A1.442,1.442,0,0,0,38.71,5.28,1.389,1.389,0,0,0,40.1,3.809,1.367,1.367,0,0,0,38.71,2.424Z" transform="translate(-4.865)"/><path class="a" d="M47.4,6.374V5.855a1.779,1.779,0,0,1-1.558.692A2.3,2.3,0,0,1,43.5,4.124,2.3,2.3,0,0,1,45.837,1.7a2.027,2.027,0,0,1,1.558.692V1.787h1.039V6.461H47.4ZM46.01,2.652a1.389,1.389,0,0,0-1.385,1.471,1.385,1.385,0,0,0,2.77,0A1.389,1.389,0,0,0,46.01,2.652Z" transform="translate(-5.846 -0.229)"/><path class="a" d="M52.345,2.6V6.232H51.219V2.6H50.7V1.558h.519V0h1.125V1.558h.692V2.6Z" transform="translate(-6.814)"/><path class="a" d="M59.447,4.556H55.812a1.324,1.324,0,0,0,1.3.952,1.165,1.165,0,0,0,1.039-.433h1.212A2.347,2.347,0,0,1,57.11,6.547,2.44,2.44,0,0,1,54.6,4.124a2.424,2.424,0,1,1,4.847.087A.263.263,0,0,1,59.447,4.556Zm-2.337-1.9a1.235,1.235,0,0,0-1.3.952h2.6A1.176,1.176,0,0,0,57.11,2.652Z" transform="translate(-7.338 -0.229)"/><path class="a" d="M74.345,2.6V6.232H73.219V2.6H72.7V1.558h.519V0h1.125V1.558h.692V2.6Z" transform="translate(-9.77)"/><path class="a" d="M78.125,3.864v2.6H77V1.787h1.039v.433A.987.987,0,0,1,79.077,1.7h.087V2.739C78.472,2.739,78.125,3.085,78.125,3.864Z" transform="translate(-10.348 -0.229)"/><path class="a" d="M84.5,6.374V5.855a1.779,1.779,0,0,1-1.558.692A2.3,2.3,0,0,1,80.6,4.124,2.3,2.3,0,0,1,82.937,1.7a2.027,2.027,0,0,1,1.558.692V1.787h1.039V6.461H84.5ZM83.11,2.652a1.389,1.389,0,0,0-1.385,1.471,1.385,1.385,0,0,0,2.77,0A1.389,1.389,0,0,0,83.11,2.652Z" transform="translate(-10.832 -0.229)"/><path class="a" d="M90.47,6.374H89.6L87.7,1.7h1.212l1.039,3.116L90.989,1.7h1.3Z" transform="translate(-11.786 -0.229)"/><path class="a" d="M98.847,4.556H95.212a1.324,1.324,0,0,0,1.3.952,1.165,1.165,0,0,0,1.039-.433h1.212A2.347,2.347,0,0,1,96.51,6.547,2.44,2.44,0,0,1,94,4.124a2.424,2.424,0,1,1,4.847.087A.263.263,0,0,1,98.847,4.556Zm-2.337-1.9a1.235,1.235,0,0,0-1.3.952h2.6A1.176,1.176,0,0,0,96.51,2.652Z" transform="translate(-12.633 -0.229)"/><path class="a" d="M101.5,6.146V0h1.125V6.146Z" transform="translate(-13.641)"/></g></g></g></svg>