<svg xmlns="http://www.w3.org/2000/svg" width="25.351" height="29.199" viewBox="0 0 25.351 29.199"><title>want-to-visit</title><path d="M18.865,12.582h.287l.382-.04.2-.234-.208-.083-.116-.132-.175-.28-.082-.4-.323.066-.093.138v.159l.155.109.224.138.019.161-.237.05Zm0,0" fill="#666"/><path d="M18.4,11.926l-.2.316v.208h.227l.408-.29.017-.214-.192-.082Zm0,0" fill="#666"/><path d="M13.294,13.221h-.284v.145h.066s0,.033.01.073l.175-.017.109-.066.03-.135.142-.013.053-.115-.129-.027-.112,0Zm0,0" fill="#666"/><path d="M12.609,13.478l.208-.017.019-.145-.125-.1-.089.116Zm0,0" fill="#666"/><path d="M24.972,17.914c0-.316-.019-.629-.05-.939a10.667,10.667,0,0,0-.715-2.94l-.079-.208A10.925,10.925,0,0,0,22.1,10.7c-.057-.06-.112-.116-.169-.175-.161-.165-.322-.327-.494-.482a10.749,10.749,0,0,0-7.265-2.817,10.467,10.467,0,0,0-1.167.069,7.1,7.1,0,0,1-.31.936,9.823,9.823,0,0,1,8.023,2.36L20.6,10.8l-.458.181-.191.208.043.244.237.033.142.356.4-.165.069.475h-.121l-.337-.046-.369.06-.359.507-.51.083-.076.435.218.053-.063.284-.51-.1-.468.1-.1.257.079.547.273.128.462,0,.31-.03.1-.247.481-.629.323.066.313-.284.06.221.771.521-.093.129-.349-.02.136.192.213.046.251-.105,0-.3.112-.052-.089-.1-.518-.289-.135-.383h.429l.135.136.373.319.013.386.382.409.145-.56.264-.145.049.458.261.284.514-.01c.1.257.192.521.271.788l-.057.049h-.791l-.482-.359-.507.049v.31h-.162l-.171-.125-.877-.221v-.567l-1.114.086-.343.185h-.442l-.218-.024-.537.3v.557l-1.094.791.092.34H17.2l-.059.323-.155.056-.007.84.946,1.081h.413l.026-.066h.738l.214-.2h.422l.23.23.626.066-.085.831.7,1.226-.366.7.024.329.289.287v.795l.38.507v.66h.326A9.91,9.91,0,0,1,4.715,15.066l-.135-.2c-.046-.069-.224-.33-.484-.688a10.66,10.66,0,0,0-.719,3.846,10.8,10.8,0,0,0,21.3,2.531c.05-.214.093-.425.132-.642a10.791,10.791,0,0,0,.168-1.889c0-.036,0-.073,0-.109Z" fill="#666" stroke="#666" stroke-miterlimit="10" stroke-width="0.75"/><path d="M21.676,12.074l-.679,0-.043-.142.425-.218,0-.481c.168.177.333.362.488.557Z" fill="#666"/><path d="M23.133,14.008l-.191.027V13.6L23,13.527c.083.159.158.32.23.484Z" fill="#666"/><path d="M23.789,15.782l.033-.036c.013.056.026.112.04.168Z" fill="#666"/><path d="M23.789,15.782" fill="#666"/><path d="M11.669,10.185l-.142.01a7.33,7.33,0,0,1-1.648,1.5c-.069.109-.142.228-.218.349l.1.024-.083.316-.254.079-.007-.017c-.537.9-1.1,1.888-1.308,2.268l-.57,1.028-.762,1.368.063.1.867.213v-.142l.346.05-.033.247.27.05.422.115.594.676.758.057.073.619-.517.363L9.593,20l-.073.339.748.94.057.319s.273.076.306.076.61.435.61.435v1.7l.2.059-.138.781.346.462-.066.775.458.8.586.51.59.013.06-.192-.435-.362.026-.181.076-.224.017-.224-.294-.009-.149-.185.244-.237.033-.175-.27-.079.016-.165.386-.06.591-.284.2-.362.619-.788L14.2,23.07l.192-.33.567.017.382-.3.125-1.193.425-.537.073-.347-.386-.125-.257-.418-.874-.007-.692-.263-.033-.494-.23-.406-.627-.01-.362-.566-.32-.155-.017.171-.583.036-.214-.3-.61-.122-.5.581-.791-.136-.056-.889-.577-.1.231-.435-.066-.254-.759.508-.478-.06-.171-.372.105-.386.263-.484.6-.307h1.17l0,.359.422.195-.036-.61.3-.3.613-.4.042-.284.607-.633.65-.359-.057-.046.439-.416.161.043.073.093.168-.185.04-.017-.184-.026-.185-.059v-.181l.1-.079H13.1l.1.043.086.171.105-.013v-.016l.03.01.3-.046.043-.152.175.043v.161l-.162.112.024.175.55.171v.007l.129-.009.006-.241-.435-.2-.024-.116.363-.121L14.4,12.1l-.38-.231L14,11.29l-.521.257h-.188l.05-.445-.709-.168-.29.221v.672L11.815,12l-.208.438-.227.036v-.56l-.494-.069-.247-.161-.1-.363.883-.517.432-.132.043.293.24-.016.02-.145.25-.036.007-.05-.109-.046-.026-.155.31-.026.188-.195.01-.013h0l.056-.06.652-.078.287.244-.754.4.959.228.126-.323h.422l.148-.28-.3-.073V9.981l-.932-.412-.643.076-.359.187.023.462-.379-.056-.059-.257.365-.33-.438-.019c-.076.112-.168.214-.251.323Zm-1.7,3.56-.175-.1.04-.244.227-.247h.327Zm.877,0-.142.142h-.316l.05-.218.148-.013.03-.073.231-.033Zm.073-.389-.148.1-.185.033v-.326h.333Zm.28-.23.154.1-.121.1-.122-.1Zm-.2.247h.024l.375.111v.192h-.313L11,13.551Zm-.25-.531.208.184-.208.05Zm-.192-.086v.116h.086v.2h-.591l-.22-.062.052-.142.287-.116Zm0,0" fill="#666"/><path d="M4.295,11.013l-.155-.066A5.185,5.185,0,0,1,5.884,1.007C5.988,1,6.091,1,6.19,1a5.183,5.183,0,0,1,2.484,9.731l-.169.1-.111.166c-.529.791-1.247,2.01-1.755,2.9a30.709,30.709,0,0,0-2.23-2.749Z" fill="none" stroke="#666" stroke-miterlimit="10" stroke-width="2"/><path d="M3.951,9.968" fill="#666"/><path d="M8.859,6.086A2.674,2.674,0,1,1,6.187,3.41,2.673,2.673,0,0,1,8.859,6.086Zm0,0" fill="#666"/></svg>