<svg xmlns="http://www.w3.org/2000/svg" viewBox="0 0 12.976 24">
  <defs>
    <style>
      .cls-1 {
        fill: #1a1a1a;
      }
    </style>
  </defs>
  <g id="flaticon1533751183-svg" transform="translate(-22.077)">
    <path id="Path_17" data-name="Path 17" class="cls-1" d="M34.564,0,31.452,0C27.955,0,25.7,2.318,25.7,5.906V8.63H22.566a.489.489,0,0,0-.489.49v3.946a.489.489,0,0,0,.489.489H25.7v9.956a.489.489,0,0,0,.489.489h4.083a.489.489,0,0,0,.489-.489V13.554h3.659a.489.489,0,0,0,.489-.489V9.119a.49.49,0,0,0-.49-.49h-3.66V6.321c0-1.11.264-1.673,1.71-1.673h2.1a.489.489,0,0,0,.489-.489V.494A.49.49,0,0,0,34.564,0Z"/>
  </g>
</svg>
