<svg xmlns="http://www.w3.org/2000/svg" width="24" height="24" viewBox="0 0 24 24">
	<path fill="#FFF" d="M2.3 6.2L4.5 8 7 7l-.8 2.7L7.8 12H5l-1.7 2-.7-2.6-2.6-1L2.3 9V6M16 .2l1.3 1L19 .5l-.7 1.6 1
	1.4h-1.7l-1 1.2-.4-1.6-1.6-.5 1.4-1V0m-5.7 24H8.6c0-3.5-2-7.5-3.2-9l1.3-1c1.3 1.7 3.6 6.5 3.6 10zm4.7 0h-1.7c0-3.5
	2.2-8.5 3.6-10l1.2 1C17 16.7 15 20.7 15 24zm-2.4-.7H11c0-2.6 0-6.4-.6-9.4l1.6-.4c.7 3.2.7 7 .6 9.7zm0-16.5l.2 1.7
	1.5.8-1.5.7-.3 1.6-1-1.2-1.8.2 1-1.4-1-1.5 1.7.3 1.3-1.2m-6-5.6v1l1 .6-1 .5v1l-1-.8-1 .2.6-1-.5-1 1 .2L7 1m3.5
	1.5l1 .7 1-.4-.4 1 .5 1h-1l-.8 1-.3-1.2-1-.3 1-.7v-1M21.5 6l-2 1.7-2.7-1 1 2.7-1.7 2.3H19l1.7 2 .7-2.6 2.6-1L21.7 9V6"/>
</svg>