<svg xmlns="http://www.w3.org/2000/svg" width="22" height="18" viewBox="0 0 22 18">
	<path fill="#FFF" d="M13.3 3.08c1.02.62 1.73 1.67 1.86 2.9.4.17.88.28 1.37.28 1.78 0 3.23-1.4 3.23-3.13S18.3 0
	16.53 0s-3.2 1.38-3.23 3.08zM11.18 9.5c1.8 0 3.23-1.4 3.23-3.13S13 3.23 11.2 3.23c-1.8 0-3.24 1.4-3.24 3.14C7.96
	8.1 9.4 9.5 11.2 9.5zm1.37.2H9.8c-2.27 0-4.13 1.8-4.13 4.02v3.3l.24.07c2.2.63 4.1.85 5.66.85 3.04 0 4.8-.84
	4.9-.9l.22-.1h.03V13.7c0-2.2-1.86-4-4.14-4zm5.35-3.2h-2.72c-.03 1.05-.5 2-1.23 2.7 2.03.57 3.5 2.4 3.5 4.55v1c2.7-.1
	4.24-.83 4.35-.88l.2-.1h.04V10.5c0-2.2-1.86-4-4.14-4zM5.5 6.26c.64 0 1.23-.18 1.73-.48.16-1 .7-1.88 1.5-2.47v-.15C8.73
	1.4 7.3 0 5.53 0 3.73 0 2.3 1.4 2.3 3.13s1.43 3.13 3.2 3.13zm2.9 2.9c-.7-.66-1.17-1.6-1.2-2.66l-.3-.02H4.14c-2.28
	0-4.14 1.8-4.14 4v3.32l.24.06c1.75.53 3.3.77 4.66.85v-.95c0-2.16 1.48-3.98 3.5-4.56z"/>
</svg>