<svg xmlns="http://www.w3.org/2000/svg" width="24" height="20" viewBox="0 0 24 20">
	<path fill="#FFF" d="M1.88 9.63l4.27 4.22c8.7-8.6 5.8-5.94 10.04-9.96 1.7-2.28 5.3-1 5.3 1.8 0 .7-.3 1.34-.7
	1.85-.85.84-7.46 7.56-8.57 8.67l-1.2-1.16 8.56-8.7c.82-1.44-1.2-2.74-2.17-1.47L7.33 15.03 12.35 20 22.8 9.33c.78-.98
	1.26-2.23 1.26-3.6 0-4.68-5.28-7.3-9-4.65-.35.34-8.45 8.56-8.97 9.08L3.3 7.4c-1.8-1.9-.4-5.12 2.23-5.12.7 0 1.7.3
	2.28 1.06L6.7 4.6c-.52-.5-.84-.6-1.1-.6-1.05 0-1.65 1.24-1 2.06l1.9 1.9 4.15-4.3C9.8 1.3 7.67-.07 5.2.06.26.3-1.84 6.52 1.88 9.62z"/>
</svg>