<svg xmlns="http://www.w3.org/2000/svg" width="24" height="22" viewBox="0 0 24 22">
	<path fill="#FFF" d="M23.9 9.63C23.9 4.3 18.55 0 11.96 0 5.4 0 .05 4.3.05 9.63c0 5.32 4.78 9.5 11.36 9.5.65 0
	1.1-.03 1.72-.1 1.93 1.68 6.1 3 6.1 3-1.2-1.27-1.98-3.12-2.1-3.7 4-1.56 6.77-4.87 6.77-8.7zm-17 1.44c-.88
	0-1.6-.7-1.6-1.55s.72-1.55 1.6-1.55c.87 0 1.58.7 1.58 1.55s-.7 1.55-1.6 1.55zm4.8 0c-.87 0-1.58-.7-1.58-1.55s.7-1.55
	1.6-1.55c.86 0 1.57.7 1.57 1.55s-.72 1.55-1.6 1.55zm4.62 0c-.87 0-1.58-.7-1.58-1.55s.7-1.55 1.58-1.55c.88 0 1.6.7
	1.6 1.55s-.72 1.55-1.6 1.55z"/>
</svg>