<svg xmlns="http://www.w3.org/2000/svg" width="24" height="26" viewBox="0 0 24 26">
	<g fill="#FFF">
		<path d="M16 .2c1.8 0 3.4 1.5 3.4 3.3 0 2-1.6 3.4-3.4 3.4-2 0-3.4-1.6-3.4-3.5C12.6 1.7 14 .2 16 .2zM11.6 7.7v-.4C11.6
		5.5 10 4 8.2 4 6.4 4 4.8 5.5 4.8 7.3v.4h6.8zM12.2 19.3V16c0-1.5 1.2-2.7 2.7-2.7H22v-2.8c0-.6-.5-1.2-1.2-1.2H1.3C.6
		9.3 0 10 0 10.5v14.3c0 .6.6 1.2 1.3 1.2H21c.7 0 1.2-.6 1.2-1.2V22H15c-1.6 0-2.8-1.2-2.8-2.7z"/>
		<path d="M16.6 18.8c-.6 0-1.2-.5-1.2-1 0-.8.6-1.3 1.2-1.3.7 0 1.2.5 1.2 1.2 0 .6-.5 1-1.2 1zM23 15h-8c-.6 0-1
		.4-1 1v3.3c0 .6.4 1 1 1h8c.6 0 1-.4 1-1V16c0-.6-.4-1-1-1z"/>
	</g>
</svg>